<svg width="216" height="136" viewBox="0 0 216 136" fill="none" xmlns="http://www.w3.org/2000/svg">
<path d="M170.256 82.0042L169.839 85.7574C168.754 88.2018 167.669 90.6447 166.586 93.0861C166.208 93.9433 165.827 94.7992 165.446 95.6533C165.273 96.0531 165.027 96.4213 164.72 96.7415C164.705 96.763 164.685 96.781 164.661 96.7941C164.638 96.8072 164.611 96.815 164.584 96.817C164.492 96.817 164.459 96.7015 164.452 96.6149C164.4 95.6893 164.282 94.7679 164.101 93.8567C163.086 89.4572 157.668 87.8449 153.419 87.9449C151.719 87.9693 150.043 88.3351 148.505 89.0175C146.286 90.0302 145.422 92.8462 145.304 92.9506L145.21 93.3126L143.688 99.2888C143.368 100.621 143.123 101.325 141.818 101.681C141.775 101.694 140.475 102.347 140.433 102.347C139.929 102.48 141.309 102.194 140.763 102.107L139.031 101.852L138.294 101.692L127.537 99.291C127.953 99.3576 128.38 99.4309 128.813 99.5131L131.31 100.075L130.65 97.0902C128.933 87.7983 131.779 79.3681 136.626 74.791C137.903 73.5874 138.537 73.2787 140.025 72.4769L140.862 74.3446C140.862 74.3446 149.417 76.7498 151.433 69.37C152.248 69.4367 153.814 69.4256 154.622 69.5921C158.834 70.4247 162.638 72.5411 165.446 75.6149C165.693 75.8814 165.936 76.1568 166.176 76.4366L166.303 76.5832C166.452 76.7587 166.609 76.9386 166.758 77.1184L166.864 77.2606C168.095 78.7758 169.228 80.3599 170.256 82.0042Z" fill="#6A6E74"/>
<path d="M68.6025 43.1578C69.9592 36.7619 75.7207 30.5658 92.1762 29.1467C128.752 25.9954 108.98 16.4881 120.89 6.08364C132.799 -4.32085 177.829 12.7971 166.049 39.5313C154.269 66.2654 193.156 36.5931 209.625 70.456C212.011 75.37 213.16 80.7375 212.982 86.1394C212.774 91.8469 211.215 97.4384 208.419 102.505C203.16 112.192 193.389 120.822 179.259 126.169C177.173 126.971 174.99 127.691 172.71 128.33" stroke="#DADBDC" stroke-width="4.52" stroke-miterlimit="10"/>
<path d="M184.464 95.7599C184.179 98.8979 181.923 99.4087 181.923 99.4087C180.015 100.472 177.084 99.3288 176.493 97.3345C176.484 97.3131 176.48 97.2907 176.479 97.2678C176.008 95.56 175.089 93.3659 173.855 90.9652C171.476 85.5375 168.383 80.0654 164.417 75.7371C161.608 72.6635 157.805 70.5471 153.593 69.7142C153.579 69.7142 153.572 69.7009 153.558 69.7009C147.973 68.1153 145.255 64.8773 144.077 61.7726C144.077 61.7726 144.077 61.7726 144.077 61.7593C143.573 59.7983 143.059 57.8862 143.335 56.7292C143.806 54.7016 144.042 52.5096 143.455 52.0655C142.718 51.4836 141.385 51.9144 137.993 52.5585C135.055 53.127 133.489 52.805 133.136 51.1127C133.08 50.8502 133.051 50.5831 133.051 50.3155C133.037 50.4843 132.344 49.8136 132.311 49.9735C132.09 50.8374 131.647 51.1838 130.681 51.5636C129.247 52.1254 128.66 54.2952 128.448 55.7409C128.227 57.2799 128.962 59.403 129.544 60.8488C128.799 60.0471 127.947 60.1403 126.613 60.6267C126.279 60.7466 125.436 60.7133 124.769 60.4934C124.863 60.4173 124.974 60.3617 125.094 60.3313C125.308 60.2647 123.754 59.5363 123.98 59.4896C126.244 59.0077 127.513 57.2289 127.245 55.6632C126.578 51.7212 127.466 47.0842 130.29 44.0128C133.404 40.635 138.485 39.9332 142.786 41.4789C146.164 42.6892 149.358 45.1721 150.529 48.4833C150.529 48.4966 150.529 48.5099 150.543 48.5233C150.692 48.9443 150.806 49.3758 150.884 49.8136C151.315 52.2764 150.394 54.7726 149.883 57.2066C149.7 58.0839 150.166 59.041 150.265 59.7361C150.833 63.9113 155.944 65.0905 159.988 66.8627C168.489 70.5959 175.431 76.9785 180.099 84.7403C183.199 89.8792 184.306 93.3837 184.464 95.7599Z" fill="#FD944F"/>
<path d="M139.648 71.6486C139.556 71.6952 139.464 71.7418 139.38 71.7951C137.853 72.6202 136.449 73.6329 135.206 74.8066C130.361 79.3836 127.515 87.8138 129.232 97.1057L129.892 100.075" stroke="black" stroke-width="2" stroke-miterlimit="10"/>
<path d="M182.519 133.996C182.52 127.059 181.884 120.135 180.618 113.302C179.771 108.666 178.605 104.086 177.127 99.593C176.239 96.8637 175.153 93.9188 173.862 90.963C172.664 88.1967 171.279 85.5055 169.717 82.9059C168.202 80.3602 166.429 77.9586 164.424 75.7349C161.615 72.6613 157.812 70.5446 153.6 69.712C152.793 69.5506 151.975 69.4349 151.153 69.3656" stroke="black" stroke-width="2" stroke-miterlimit="10"/>
<path d="M95.4555 73.6273L95.3354 73.6073C93.8969 73.3801 92.4207 73.4969 91.0425 73.9469C89.6643 74.397 88.4279 75.1661 87.4469 76.1834L79.3911 84.4582L78.4489 85.4354C78.3902 85.4953 78.3351 85.5584 78.284 85.6241" stroke="black" stroke-width="2" stroke-miterlimit="10"/>
<path d="M83.821 87.785L88.2423 83.1613L88.2493 83.1546" stroke="black" stroke-width="2.52" stroke-miterlimit="10"/>
<path d="M122.282 111.668L143.078 118.576C145.081 119.242 147.213 119.493 149.327 119.312C151.442 119.132 153.491 118.524 155.335 117.53C157.178 116.537 158.773 115.18 160.011 113.554C161.249 111.927 162.101 110.068 162.509 108.103L167.429 84.4204C167.681 83.2043 167.669 81.9529 167.395 80.741C167.12 79.5293 166.589 78.3825 165.832 77.3694C165.621 77.084 165.391 76.8111 165.145 76.5521" stroke="black" stroke-width="2" stroke-miterlimit="10"/>
<path d="M108.518 110.713C105.87 112.398 103.925 117.517 102.891 120.877C102.714 121.441 102.347 121.935 101.847 122.286C101.347 122.636 100.74 122.825 100.116 122.823C99.6939 122.823 99.277 122.736 98.8935 122.569C98.3056 122.309 97.8277 121.87 97.537 121.323C97.2463 120.775 97.1599 120.151 97.2918 119.551C99.0231 111.57 105.133 95.8132 126.123 99.2865C126.542 99.3531 126.969 99.4264 127.4 99.5086L129.892 100.075L136.88 101.681L138.765 102.109C139.48 102.273 140.229 102.247 140.93 102.036C140.973 102.028 141.016 102.017 141.057 102.003C141.702 101.794 142.281 101.435 142.74 100.959C143.2 100.483 143.524 99.9055 143.683 99.2799L145.273 93.0438L145.365 92.6818L147.447 84.5292" stroke="black" stroke-width="2" stroke-miterlimit="10"/>
<path d="M98.2821 85.1577H91.1591C90.3469 85.1577 89.568 84.8535 88.9937 84.312C88.4194 83.7706 88.097 83.0364 88.097 82.2707C88.097 81.5049 88.4194 80.7707 88.9937 80.2293C89.568 79.6879 90.3469 79.3836 91.1591 79.3836H101.25" stroke="black" stroke-width="2" stroke-miterlimit="10"/>
<path d="M92.8145 85.1555C92.7132 86.3325 92.2374 87.2031 91.5355 87.8049C89.7265 89.3595 86.4123 89.1818 84.1063 88.1181" stroke="black" stroke-width="2" stroke-miterlimit="10"/>
<path d="M79.4 84.456C77.3578 82.1285 77.7747 78.9728 79.36 76.5343C83.8566 69.6143 94.1312 70.9423 100.795 73.8183C106.194 76.1412 110.924 79.6324 115.528 83.1146C117.778 84.8157 119.987 86.5879 122.124 88.4445C122.516 88.7792 122.984 89.0255 123.491 89.1652C123.999 89.3049 124.534 89.334 125.055 89.2507C125.577 89.1674 126.072 88.9735 126.502 88.684C126.933 88.3944 127.288 88.0164 127.541 87.5784C128.719 85.5286 129.994 83.2923 130.234 82.6727" stroke="black" stroke-width="2" stroke-miterlimit="10"/>
<path d="M91.5381 87.805C91.5381 87.805 102.164 93.2393 110.057 101.048" stroke="black" stroke-width="2.52" stroke-miterlimit="10"/>
<path d="M105.925 113.66C104.747 115.556 105.76 118.341 107.986 119.007C110.829 119.872 113.834 120.156 116.803 119.84C120.041 119.485 122.194 116.964 123.612 114.077C123.715 113.862 123.768 113.629 123.769 113.394C123.77 113.158 123.719 112.925 123.618 112.71C123.517 112.494 123.369 112.301 123.184 112.143C122.999 111.985 122.78 111.865 122.543 111.792C122.114 111.659 121.648 111.683 121.238 111.86C120.828 112.036 120.503 112.352 120.329 112.745C119.858 113.771 119.13 115.054 118.164 115.632" stroke="black" stroke-width="2" stroke-miterlimit="10"/>
<path d="M111.473 113.304C111.473 113.304 108.564 116.254 110.858 119.376C110.959 119.507 111.077 119.625 111.211 119.727" stroke="black" stroke-width="2" stroke-miterlimit="10"/>
<path d="M115.309 113.791C115.309 113.791 112.619 119.498 116.07 119.916" stroke="black" stroke-width="2" stroke-miterlimit="10"/>
<path d="M210.813 134H44.2232" stroke="black" stroke-width="2.52" stroke-miterlimit="10"/>
<path d="M109.76 123.245H93.1469C92.9782 124.723 92.2351 126.091 91.0609 127.084C89.8866 128.077 88.3643 128.625 86.7871 128.623H30.9479C30.951 130.047 31.5523 131.412 32.6201 132.419C33.688 133.426 35.1355 133.993 36.6458 133.996H109.76C111.273 133.995 112.724 133.429 113.795 132.423C114.867 131.416 115.471 130.05 115.477 128.623V125.012C115.477 124.541 115.278 124.089 114.925 123.756C114.571 123.423 114.092 123.236 113.592 123.236L109.76 123.245Z" stroke="black" stroke-width="2" stroke-miterlimit="10"/>
<path d="M84.1065 88.1181C84.596 88.7566 84.9481 89.4795 85.1429 90.2456L93.0126 121.19C93.1864 121.862 93.2319 122.558 93.1469 123.245C92.9782 124.723 92.2353 126.091 91.0611 127.084C89.8869 128.077 88.3645 128.625 86.7871 128.623H29.9115C28.4751 128.623 27.0806 128.167 25.9528 127.328C24.825 126.489 24.0298 125.317 23.6953 124L15.8398 93.0572C15.6139 92.1711 15.6042 91.2485 15.8113 90.3584C16.0183 89.4683 16.4367 88.6342 17.0352 87.9187C17.6335 87.2031 18.3962 86.6248 19.2658 86.2275C20.1355 85.83 21.0895 85.6237 22.0559 85.6241H78.9268C79.8612 85.6224 80.7843 85.8151 81.6304 86.1887C82.4765 86.5622 83.2246 87.1072 83.8215 87.785L84.1065 88.1181Z" stroke="black" stroke-width="2" stroke-miterlimit="10"/>
<path d="M75.1978 49.607C74.8351 49.2051 74.4535 48.8186 74.0554 48.4433C71.8217 46.33 69.1671 44.6535 66.2441 43.51C63.3212 42.3668 60.1875 41.7791 57.0229 41.7809H27.2071C24.0435 41.7798 20.9104 42.3663 17.9873 43.5074C15.0644 44.6484 12.4083 46.3213 10.1713 48.4307C7.93434 50.54 6.16017 53.0442 4.95027 55.8002C3.74035 58.5565 3.11838 61.5104 3.11994 64.4931V64.6552C3.1169 66.7714 3.68858 68.8535 4.78056 70.7025C6.00765 71.8806 7.47234 72.8156 9.08841 73.4521C10.7045 74.0888 12.4393 74.4141 14.1907 74.409H43.4223C44.3143 74.409 45.1701 74.743 45.8009 75.3378C46.4317 75.9325 46.7859 76.7393 46.7859 77.5804C46.7871 78.4225 47.1428 79.2295 47.7748 79.8247C48.4067 80.4196 49.2634 80.7539 50.1566 80.7539H50.2297L57.4469 80.5807C57.4469 80.514 57.4327 80.4541 57.4327 80.3941C56.8088 80.1918 56.2675 79.8109 55.8845 79.3044C55.5015 78.7978 55.2958 78.1913 55.2963 77.5692V77.4227C55.297 76.5816 55.6515 75.7755 56.2821 75.1808C56.9129 74.5863 57.7682 74.2518 58.6599 74.2513H65.7759C69.2742 74.2513 72.6294 72.9411 75.1031 70.6088C77.5769 68.2765 78.9666 65.1132 78.9666 61.8148C78.9788 57.4889 77.6706 53.2509 75.1978 49.607ZM23.5655 62.7653C22.4248 62.7658 21.3095 62.4471 20.3609 61.8499C19.4121 61.2525 18.6727 60.4033 18.236 59.4097C17.7995 58.4161 17.6853 57.3228 17.9079 56.2679C18.1305 55.213 18.6798 54.2441 19.4868 53.4837C20.2935 52.7233 21.3215 52.2058 22.4403 51.9962C23.5592 51.7868 24.7188 51.8949 25.7726 52.3071C26.8262 52.7193 27.7267 53.4166 28.3597 54.3114C28.9928 55.2061 29.3304 56.2577 29.3294 57.3332C29.3275 58.7736 28.7196 60.1548 27.6391 61.173C26.5584 62.1915 25.0935 62.764 23.5655 62.7653ZM42.3788 62.7653C41.2383 62.7649 40.1234 62.4455 39.1754 61.8477C38.2275 61.2498 37.4886 60.4004 37.0528 59.4066C36.6168 58.413 36.5033 57.3197 36.7264 56.265C36.9494 55.2106 37.4994 54.2421 38.3064 53.4821C39.1134 52.7222 40.1411 52.2049 41.26 51.996C42.3788 51.7868 43.5382 51.8953 44.5916 52.3075C45.6452 52.7197 46.5452 53.4173 47.1781 54.3118C47.811 55.2064 48.1483 56.2579 48.1474 57.3332C48.1474 58.047 47.9981 58.7541 47.7081 59.4135C47.4181 60.073 46.9932 60.672 46.4573 61.1766C45.9217 61.6811 45.2857 62.0811 44.5859 62.3536C43.8861 62.6263 43.1361 62.7662 42.3788 62.7653ZM60.297 62.7653C59.1565 62.7644 58.0421 62.4446 57.0943 61.8466C56.1466 61.2485 55.4082 60.3988 54.9727 59.405C54.5371 58.4114 54.4238 57.3181 54.6471 56.2637C54.8707 55.2095 55.4207 54.241 56.2277 53.4815C57.0349 52.7217 58.0626 52.2047 59.1814 51.9957C60.3001 51.787 61.4594 51.8954 62.5128 52.3078C63.566 52.7199 64.466 53.4175 65.0989 54.312C65.7316 55.2066 66.0689 56.2579 66.0679 57.3332C66.0679 58.0472 65.9186 58.7543 65.6284 59.4139C65.3384 60.0737 64.9131 60.6729 64.3772 61.1774C63.8411 61.682 63.2049 62.0818 62.5048 62.3543C61.8048 62.6267 61.0545 62.7664 60.297 62.7653Z" fill="#FFDBC4"/>
<path d="M78.9666 61.817C78.9666 65.1154 77.5769 68.2787 75.1031 70.611C72.6294 72.9433 69.2743 74.2536 65.7759 74.2536H58.6647C57.7731 74.254 56.9183 74.588 56.2877 75.1823C55.6572 75.7764 55.3022 76.5821 55.301 77.4227V77.5692C55.3006 78.1913 55.5062 78.7978 55.8892 79.3044C56.2722 79.8109 56.8135 80.1918 57.4375 80.3941C57.7661 80.5018 58.1118 80.5558 58.4597 80.554L57.4516 80.5807L50.2297 80.7539H50.1519C49.2592 80.7539 48.403 80.4199 47.771 79.8254C47.139 79.2309 46.7831 78.4243 46.7812 77.5826C46.7812 76.7413 46.427 75.9347 45.7959 75.34C45.1651 74.7453 44.3096 74.4113 43.4176 74.4113H14.1907C10.6923 74.4113 7.33723 73.101 4.86347 70.7687C2.38974 68.4364 1 65.2731 1 61.9747V61.8126C1.00031 58.8316 1.62336 55.8802 2.83353 53.1261C4.04371 50.3723 5.81737 47.8701 8.0532 45.7626C10.289 43.6551 12.9433 41.9834 15.8643 40.8428C18.7853 39.7025 21.9163 39.1155 25.0778 39.1159H54.8841C61.2701 39.1164 67.3946 41.5082 71.9108 45.7653C76.4267 50.0223 78.9647 55.796 78.9666 61.817Z" stroke="black" stroke-width="1.52" stroke-miterlimit="10"/>
<path d="M153.593 69.7054C153.579 69.7054 153.572 69.692 153.558 69.692C147.973 68.1064 145.255 64.8684 144.077 61.7637C144.077 61.7637 144.077 61.7637 144.077 61.7504C143.156 59.3297 143.177 56.9868 143.51 55.5877C143.709 54.8466 143.835 54.09 143.886 53.3269C143.964 51.166 142.282 51.6946 137.472 52.5985C135.263 53.0204 133.85 52.2298 133.143 51.1061C133.074 51.0081 133.014 50.9049 132.964 50.7974C132.635 50.1434 132.498 49.4176 132.568 48.6965" stroke="black" stroke-miterlimit="10"/>
<path d="M129.801 61.1419C129.716 61.0286 129.629 60.9198 129.544 60.8332C128.8 60.0315 127.947 60.1248 126.614 60.6111C126.279 60.7311 125.436 60.6977 124.769 60.4779C124.209 60.2891 123.789 59.9627 123.98 59.4741C124.029 59.3735 124.102 59.2851 124.193 59.2154C124.284 59.1456 124.391 59.0965 124.505 59.0721C124.728 59.0193 124.952 58.9768 125.179 58.9455C127.466 58.4636 126.955 55.9674 126.677 54.4018C126.004 50.462 126.899 45.825 129.751 42.7536C132.893 39.3757 138.033 38.6717 142.374 40.2174C146.192 41.5766 149.785 44.5258 150.529 48.4677C150.529 48.4811 150.529 48.4944 150.543 48.5077C150.557 48.521 150.543 48.541 150.543 48.5544C150.983 51.0172 150.543 53.6867 150.032 56.1229C149.726 57.5664 149.841 58.7456 150.267 59.7206C151.603 62.9119 156.109 64.0245 159.741 65.6035C168.336 69.3367 175.339 75.7193 180.06 83.481C183.786 89.6371 184.669 93.4236 184.464 95.7599C184.179 98.8979 181.923 99.4087 181.923 99.4087C180.015 100.472 177.082 99.3287 176.493 97.3344C176.485 97.3131 176.48 97.2905 176.479 97.2678C176.008 95.56 175.09 93.3659 173.855 90.9652" stroke="black" stroke-miterlimit="10"/>
<path d="M132.558 48.6965C132.558 49.8846 131.965 51.0572 130.674 51.5569C129.223 52.121 128.634 53.6067 128.422 55.0525C128.126 57.1696 128.609 59.3182 129.791 61.1397C130.886 62.8542 132.669 64.7441 135.194 64.7441C139.82 64.7441 141.804 62.641 141.804 62.641" stroke="black" stroke-miterlimit="10"/>
<path d="M137.361 55.7342C137.796 55.7342 138.148 55.4022 138.148 54.9925C138.148 54.583 137.796 54.2507 137.361 54.2507C136.927 54.2507 136.575 54.583 136.575 54.9925C136.575 55.4022 136.927 55.7342 137.361 55.7342Z" fill="black"/>
<path d="M130.441 56.1673C130.876 56.1673 131.228 55.8353 131.228 55.4256C131.228 55.016 130.876 54.6838 130.441 54.6838C130.007 54.6838 129.655 55.016 129.655 55.4256C129.655 55.8353 130.007 56.1673 130.441 56.1673Z" fill="black"/>
<path d="M133.835 54.2952C133.835 54.2952 133.442 57.2244 133.6 57.6264C133.758 58.0283 134.742 57.5686 134.742 57.5686" stroke="black" stroke-miterlimit="10"/>
<path d="M135.293 60.1314C136.977 60.7155 138.716 59.9715 139.224 58.5436" stroke="black" stroke-width="0.52" stroke-miterlimit="10"/>
<path d="M141.433 56.0645C142.576 54.5397 142.159 52.4095 140.503 51.306C138.846 50.2027 136.577 50.5442 135.435 52.069C134.293 53.5936 134.709 55.7241 136.366 56.8274C138.022 57.9307 140.291 57.5891 141.433 56.0645Z" stroke="black" stroke-miterlimit="10"/>
<path d="M132.233 56.5004C133.376 54.9756 132.959 52.8452 131.303 51.7419C129.646 50.6386 127.377 50.9802 126.235 52.505C125.092 54.0295 125.509 56.16 127.166 57.2633C128.822 58.3666 131.091 58.025 132.233 56.5004Z" stroke="black" stroke-miterlimit="10"/>
<path d="M134.801 54.2486L132.87 54.3418" stroke="black" stroke-miterlimit="10"/>
<path d="M136.572 64.7441L140.861 74.3513C140.861 74.3513 149.136 76.45 151.148 69.068" stroke="black" stroke-miterlimit="10"/>
<path d="M55.1882 114.536C58.4277 113.573 60.1232 110.01 58.9756 106.578C57.8278 103.146 54.2712 101.145 51.0317 102.108C47.7924 103.071 46.0967 106.634 47.2446 110.066C48.3921 113.498 51.9487 115.499 55.1882 114.536Z" fill="#FFDBC4"/>
<path d="M135.427 133.996C135.335 126.176 133.873 118.45 133.199 115.296" stroke="black" stroke-width="2" stroke-miterlimit="10"/>
</svg>
